<svg width="36" height="18" viewBox="0 0 36 18" fill="none" xmlns="http://www.w3.org/2000/svg">
<path d="M18 10.125C20.445 10.125 22.605 10.71 24.36 11.475C25.98 12.195 27 13.815 27 15.57V18H9V15.585C9 13.815 10.02 12.195 11.64 11.49C13.395 10.71 15.555 10.125 18 10.125ZM6 10.5C7.65 10.5 9 9.15 9 7.5C9 5.85 7.65 4.5 6 4.5C4.35 4.5 3 5.85 3 7.5C3 9.15 4.35 10.5 6 10.5ZM7.695 12.15C7.14 12.06 6.585 12 6 12C4.515 12 3.105 12.315 1.83 12.87C0.72 13.35 0 14.43 0 15.645V18H6.75V15.585C6.75 14.34 7.095 13.17 7.695 12.15ZM30 10.5C31.65 10.5 33 9.15 33 7.5C33 5.85 31.65 4.5 30 4.5C28.35 4.5 27 5.85 27 7.5C27 9.15 28.35 10.5 30 10.5ZM36 15.645C36 14.43 35.28 13.35 34.17 12.87C32.895 12.315 31.485 12 30 12C29.415 12 28.86 12.06 28.305 12.15C28.905 13.17 29.25 14.34 29.25 15.585V18H36V15.645ZM18 0C20.49 0 22.5 2.01 22.5 4.5C22.5 6.99 20.49 9 18 9C15.51 9 13.5 6.99 13.5 4.5C13.5 2.01 15.51 0 18 0Z" fill="white"/>
</svg>
