<svg width="30" height="30" viewBox="0 0 30 30" fill="none" xmlns="http://www.w3.org/2000/svg">
<path d="M15 0C6.72 0 0 6.72 0 15C0 23.28 6.72 30 15 30C23.28 30 30 23.28 30 15C30 6.72 23.28 0 15 0ZM13.5 26.895C7.575 26.16 3 21.12 3 15C3 14.07 3.12 13.185 3.315 12.315L10.5 19.5V21C10.5 22.65 11.85 24 13.5 24V26.895ZM23.85 23.085C23.46 21.87 22.35 21 21 21H19.5V16.5C19.5 15.675 18.825 15 18 15H9V12H12C12.825 12 13.5 11.325 13.5 10.5V7.5H16.5C18.15 7.5 19.5 6.15 19.5 4.5V3.885C23.895 5.67 27 9.975 27 15C27 18.12 25.8 20.955 23.85 23.085Z" fill="white"/>
</svg>
